<?xml version="1.0" standalone="no"?>
<!DOCTYPE svg PUBLIC "-//W3C//DTD SVG 20010904//EN"
 "http://www.w3.org/TR/2001/REC-SVG-20010904/DTD/svg10.dtd">
<svg version="1.0" xmlns="http://www.w3.org/2000/svg"
 width="40.000000pt" height="40.000000pt" viewBox="0 0 40.000000 40.000000"
 preserveAspectRatio="xMidYMid meet">
<metadata>
Created by potrace 1.15, written by Peter Selinger 2001-2017
</metadata>
<g transform="translate(0.000000,40.000000) scale(0.100000,-0.100000)"
fill="#000000" stroke="none">
<path d="M93 374 c-62 -37 -93 -95 -93 -174 0 -123 77 -200 200 -200 123 0
200 77 200 200 0 123 -77 200 -201 200 -51 0 -73 -5 -106 -26z m185 -44 c130
-79 74 -280 -78 -280 -152 0 -208 201 -78 280 43 26 113 26 156 0z"/>
<path d="M114 286 c-50 -50 -50 -122 0 -172 30 -30 40 -34 86 -34 46 0 56 4
86 34 30 30 34 40 34 86 0 75 -45 120 -120 120 -46 0 -56 -4 -86 -34z"/>
</g>
</svg>
